<?xml version="1.0" standalone="no"?>
<svg viewBox="0 0 200 200" xmlns="http://www.w3.org/2000/svg">
  <path fill="#08BDBA" d="M45.6,-69.7C57.2,-63.6,63.3,-47.7,65.3,-32.9C67.2,-18.1,65,-4.6,61.3,7.6C57.6,19.7,52.4,30.3,45.8,41.9C39.2,53.4,31.1,65.9,19.3,72.4C7.5,78.9,-8,79.3,-20.2,73.6C-32.4,67.8,-41.4,55.7,-50.7,44.3C-60,32.9,-69.7,22.2,-68.9,11.4C-68.1,0.7,-56.9,-10.1,-52,-25C-47.1,-39.9,-48.6,-58.9,-41,-66.9C-33.4,-74.8,-16.7,-71.7,0.2,-72C17,-72.2,34.1,-75.9,45.6,-69.7Z" transform="translate(100 100)" />
</svg>
