<?xml version="1.0" standalone="no"?>
<svg viewBox="0 0 200 200" xmlns="http://www.w3.org/2000/svg">
  <path fill="#08BDBA" d="M39.6,-63.9C52.1,-53.5,63.7,-44,71.8,-31.3C79.9,-18.7,84.5,-2.9,78.2,8.2C71.9,19.3,54.6,25.8,42.9,34.6C31.3,43.4,25.3,54.5,15.3,61.9C5.4,69.3,-8.6,72.9,-19.9,69C-31.3,65.1,-40,53.7,-51.5,43.2C-63,32.6,-77.2,22.9,-82.8,9.5C-88.4,-3.8,-85.4,-20.7,-76.1,-32.1C-66.8,-43.4,-51,-49.2,-37.3,-59C-23.6,-68.8,-11.8,-82.7,0.9,-84.1C13.5,-85.4,27,-74.3,39.6,-63.9Z" transform="translate(100 100)" />
</svg>
