<?xml version="1.0" standalone="no"?>
<svg viewBox="0 0 200 200" xmlns="http://www.w3.org/2000/svg">
  <path fill="#08BDBA" d="M35.7,-63.1C45.6,-56.1,52.5,-45.2,56.8,-34C61.2,-22.8,63.1,-11.4,67.2,2.3C71.2,16.1,77.5,32.2,73.8,44.6C70.1,57,56.5,65.6,42.5,68.1C28.6,70.7,14.3,67,0.7,65.9C-13,64.7,-26,66.1,-36.7,61.7C-47.5,57.4,-56.1,47.4,-63.3,36.1C-70.6,24.9,-76.4,12.4,-78.1,-1C-79.8,-14.4,-77.3,-28.8,-70.1,-40C-62.8,-51.2,-50.9,-59.3,-38.4,-64.8C-25.9,-70.3,-13,-73.3,0,-73.2C12.9,-73.2,25.8,-70.1,35.7,-63.1Z" transform="translate(100 100)" />
</svg>
