<?xml version="1.0" standalone="no"?>
<svg viewBox="0 0 200 200" xmlns="http://www.w3.org/2000/svg">
  <path fill="#08BDBA" d="M36.5,-68.3C45.9,-57.9,51.1,-45.2,59,-33.4C66.8,-21.7,77.4,-10.8,80.4,1.7C83.4,14.3,78.8,28.6,72.4,42.8C65.9,57,57.5,71.1,45.2,74.8C32.8,78.6,16.4,72,0.2,71.8C-16.1,71.5,-32.2,77.5,-41.9,72.2C-51.6,66.9,-55,50.3,-63,36.4C-71,22.5,-83.7,11.2,-85.1,-0.8C-86.4,-12.8,-76.4,-25.6,-67.6,-38.1C-58.8,-50.7,-51.1,-63,-40,-72.4C-29,-81.9,-14.5,-88.5,-0.5,-87.8C13.6,-87,27.2,-78.8,36.5,-68.3Z" transform="translate(100 100)" />
</svg>
