<?xml version="1.0" standalone="no"?>
<svg viewBox="0 0 200 200" xmlns="http://www.w3.org/2000/svg">
  <path fill="#08BDBA" d="M29.3,-47.8C39,-39.3,48.7,-33,56.9,-23.5C65.1,-14,71.9,-1.3,69.2,9.2C66.5,19.7,54.4,28.2,43.2,32.9C32,37.6,21.8,38.6,11.2,44.8C0.5,51,-10.6,62.3,-18.6,61C-26.6,59.7,-31.5,45.6,-41.1,35.2C-50.8,24.8,-65.2,18.1,-70.1,7.9C-75.1,-2.4,-70.6,-16.3,-61.9,-25.3C-53.2,-34.3,-40.2,-38.4,-29.2,-46.3C-18.2,-54.2,-9.1,-66,0.3,-66.5C9.8,-67.1,19.6,-56.4,29.3,-47.8Z" transform="translate(100 100)" />
</svg>
