<?xml version="1.0" standalone="no"?>
<svg viewBox="0 0 200 200" xmlns="http://www.w3.org/2000/svg">
  <path fill="#08BDBA" d="M39.4,-53.8C53.4,-52.2,68.9,-45.4,72.7,-34.1C76.4,-22.8,68.5,-7,66.7,10C65,27.1,69.4,45.5,62.2,54.2C55.1,62.8,36.4,61.7,20.1,64.9C3.7,68.1,-10.3,75.6,-21.7,72.8C-33,70,-41.7,56.8,-53.7,45.2C-65.8,33.7,-81.3,23.8,-84.8,11.1C-88.4,-1.7,-80.1,-17.2,-68.1,-25.9C-56,-34.6,-40.3,-36.4,-28.3,-38.9C-16.3,-41.5,-8.2,-44.8,2.2,-48.3C12.7,-51.7,25.3,-55.4,39.4,-53.8Z" transform="translate(100 100)" />
</svg>
