<?xml version="1.0" standalone="no"?>
<svg viewBox="0 0 200 200" xmlns="http://www.w3.org/2000/svg">
  <path fill="#08BDBA" d="M36.8,-52.9C47.2,-50.5,54.9,-39.6,57.7,-27.9C60.5,-16.3,58.4,-4.1,55.1,6.8C51.8,17.7,47.2,27.3,40.4,34.8C33.6,42.2,24.5,47.5,15.6,47.7C6.6,47.9,-2.3,43,-12.1,40.4C-21.8,37.9,-32.5,37.6,-40.9,32.7C-49.4,27.9,-55.7,18.4,-57.6,8C-59.5,-2.4,-57.1,-13.7,-50.2,-20.5C-43.3,-27.3,-32,-29.7,-22.9,-32.7C-13.8,-35.6,-6.9,-39.1,3.2,-44C13.2,-48.9,26.4,-55.2,36.8,-52.9Z" transform="translate(100 100)" />
</svg>
